<?xml version="1.0" encoding="UTF-8" standalone="no"?>
<svg
   width="24"
   height="24"
   viewBox="0 0 24 24"
   version="1.1"
   id="svg1"
   sodipodi:docname="param_monocentric.svg"
   inkscape:version="1.3.2 (091e20e, 2023-11-25, custom)"
   xmlns:inkscape="http://www.inkscape.org/namespaces/inkscape"
   xmlns:sodipodi="http://sodipodi.sourceforge.net/DTD/sodipodi-0.dtd"
   xmlns="http://www.w3.org/2000/svg"
   xmlns:svg="http://www.w3.org/2000/svg">
  <defs
     id="defs1" />
  <sodipodi:namedview
     id="namedview1"
     pagecolor="#ffffff"
     bordercolor="#000000"
     borderopacity="0.25"
     inkscape:showpageshadow="2"
     inkscape:pageopacity="0.0"
     inkscape:pagecheckerboard="0"
     inkscape:deskcolor="#d1d1d1"
     showgrid="false"
     inkscape:zoom="26.487042"
     inkscape:cx="7.8528967"
     inkscape:cy="11.609451"
     inkscape:window-width="1920"
     inkscape:window-height="1137"
     inkscape:window-x="-8"
     inkscape:window-y="-8"
     inkscape:window-maximized="1"
     inkscape:current-layer="svg1" />
  <polyline
     points="21.5 2.5 21.5 7.5 16.5 2.5 9.5 2.5 21.5 14.5 21.5 21.5 2.5 2.5 2.5 9.5 14.5 21.5 7.5 21.5 2.5 16.5 2.5 21.5"
     style="display:inline;fill:none;stroke:#009688;stroke-linecap:square;stroke-linejoin:round"
     id="polyline1" />
  <rect
     x="1.5"
     y="1.5"
     width="21"
     height="21"
     rx="2"
     style="display:inline;fill:none;stroke:#949494;stroke-linecap:round;stroke-linejoin:round"
     id="rect1" />
  <g
     id="g3"
     style="display:inline;opacity:1;mix-blend-mode:hard-light">
    <path
       d="m 19.5,22.459 a 7.562,7.562 0 0 0 -0.075,-1 h 0.007 C 19.42,21.375 19.402,21.292 19.388,21.208 19.374,21.124 19.361,21.044 19.344,20.963 19.311,20.8 19.27,20.639 19.226,20.478 c -0.015,-0.052 -0.025,-0.1 -0.041,-0.156 -0.062,-0.208 -0.135,-0.414 -0.216,-0.617 -0.026,-0.064 -0.056,-0.126 -0.083,-0.189 -0.062,-0.142 -0.126,-0.284 -0.2,-0.423 -0.037,-0.074 -0.078,-0.147 -0.119,-0.22 -0.07,-0.128 -0.145,-0.253 -0.223,-0.377 -0.046,-0.072 -0.091,-0.143 -0.14,-0.213 -0.088,-0.129 -0.182,-0.254 -0.279,-0.378 -0.046,-0.059 -0.089,-0.119 -0.137,-0.176 -0.148,-0.178 -0.3,-0.353 -0.472,-0.52 -0.172,-0.167 -0.333,-0.312 -0.506,-0.455 -0.047,-0.039 -0.094,-0.077 -0.142,-0.114 q -0.225,-0.178 -0.461,-0.338 l -0.086,-0.059 c -0.183,-0.119 -0.37,-0.227 -0.56,-0.329 -0.051,-0.027 -0.1,-0.052 -0.154,-0.077 -0.155,-0.079 -0.313,-0.151 -0.472,-0.218 -0.047,-0.019 -0.093,-0.041 -0.141,-0.059 -0.2,-0.078 -0.395,-0.146 -0.6,-0.207 l -0.148,-0.04 C 13.954,15.288 13.863,15.26 13.771,15.238 A 8.562,8.562 0 0 0 12.4,13.47 8.741,8.741 0 0 0 9.3,11.515 0.239,0.239 0 0 0 9.016,11.867 5.061,5.061 0 0 1 9.8,15.376 c -0.18,0.056 -0.358,0.121 -0.535,0.191 l -0.143,0.059 c -0.2,0.081 -0.387,0.168 -0.575,0.267 -0.022,0.011 -0.043,0.024 -0.065,0.036 -0.176,0.094 -0.35,0.2 -0.52,0.307 -0.037,0.023 -0.074,0.046 -0.11,0.07 -0.179,0.119 -0.353,0.248 -0.524,0.384 l -0.105,0.087 c -0.175,0.146 -0.347,0.3 -0.512,0.461 -0.165,0.161 -0.315,0.333 -0.46,0.506 -0.043,0.052 -0.085,0.105 -0.126,0.157 q -0.158,0.2 -0.3,0.4 c -0.036,0.052 -0.074,0.1 -0.108,0.156 -0.113,0.174 -0.221,0.35 -0.319,0.53 v 0 a 7.469,7.469 0 0 0 -0.9,3.51"
       style="fill:none;stroke:#009688;stroke-linecap:round;stroke-linejoin:round"
       id="path1" />
    <path
       d="m 12.52,19.027 c 0.154,-0.486 1.165,-0.669 2.259,-0.408 1.094,0.261 1.855,0.867 1.7,1.354 -0.155,0.487 -1.165,0.669 -2.259,0.408 -1.094,-0.261 -1.854,-0.867 -1.7,-1.354 z"
       style="fill:none;stroke:#009688;stroke-linecap:round;stroke-linejoin:round"
       id="path2" />
    <path
       d="m 16.117,1.5 a 20.427,20.427 0 0 1 4.693,3.412 q 0.213,0.21 0.422,0.428 c 0.475,0.254 0.876,0.492 1.268,0.74 m 0,3.7 L 22.479,9.763 22.238,9.569 C 21.901,9.304 21.559,9.054 21.294,8.877 L 21.034,8.701 C 20.625,8.435 20.206,8.19 19.725,7.936 L 19.393,7.766 C 19.171,7.521 18.941,7.282 18.706,7.051 A 17.857,17.857 0 0 0 12.285,3.025 L 12.2,3 A 9.224,9.224 0 0 0 9.214,2.5 v 0 A 9.209,9.209 0 0 0 1.5,6.7 m 20.906,14.373 c -0.014,-0.114 -0.034,-0.229 -0.066,-0.4 -0.017,-0.1 -0.035,-0.208 -0.056,-0.309 -0.047,-0.232 -0.1,-0.463 -0.159,-0.658 L 22.06,19.463 c -0.088,-0.3 -0.191,-0.584 -0.3,-0.858 -0.036,-0.091 -0.075,-0.18 -0.119,-0.277 -0.087,-0.2 -0.18,-0.4 -0.284,-0.605 l -0.164,-0.3 c -0.1,-0.182 -0.208,-0.363 -0.33,-0.555 -0.063,-0.1 -0.126,-0.2 -0.178,-0.271 -0.126,-0.185 -0.261,-0.366 -0.42,-0.569 -0.054,-0.071 -0.109,-0.142 -0.167,-0.212 -0.209,-0.251 -0.428,-0.5 -0.664,-0.731 -0.236,-0.231 -0.465,-0.436 -0.716,-0.644 l -0.192,-0.154 c -0.21,-0.165 -0.422,-0.322 -0.619,-0.453 l -0.144,-0.1 c -0.259,-0.168 -0.525,-0.322 -0.779,-0.457 l -0.226,-0.116 c -0.221,-0.112 -0.445,-0.214 -0.664,-0.3 l -0.2,-0.081 C 15.821,12.751 15.748,12.722 15.675,12.696 A 11.593,11.593 0 0 0 10.342,8.7 L 9.753,8.5 H 9.217 a 3.238,3.238 0 0 0 -2.71,5.009 l 0.044,0.07 C 6.474,13.627 6.19,13.809 6.19,13.809 5.939,13.976 5.696,14.154 5.458,14.344 L 5.3,14.474 c -0.241,0.2 -0.477,0.411 -0.707,0.64 -0.23,0.229 -0.438,0.461 -0.651,0.714 l -0.16,0.2 c -0.149,0.187 -0.291,0.379 -0.463,0.628 l -0.113,0.165 c -0.158,0.242 -0.308,0.49 -0.441,0.741 a 10.5,10.5 0 0 0 -1.16,3.549 m 20.8,-7.215 c -0.269,-0.324 -0.551,-0.637 -0.859,-0.944 -0.292,-0.29 -0.593,-0.558 -0.945,-0.849 L 20.38,11.925 c -0.271,-0.213 -0.546,-0.414 -0.776,-0.569 l -0.2,-0.139 C 19.068,10.999 18.725,10.799 18.359,10.605 L 18.114,10.479 C 17.927,10.385 17.737,10.295 17.551,10.212 Q 17.104,9.679 16.609,9.192 A 14.728,14.728 0 0 0 11.318,5.864 L 11.043,5.77 A 5,5 0 0 0 9.422,5.5 v 0 a 6.444,6.444 0 0 0 -4.367,1.585 6.3,6.3 0 0 0 -2.04,5.4 c -0.182,0.161 -0.361,0.328 -0.539,0.5 -0.289,0.288 -0.559,0.587 -0.872,0.961 l -0.1,0.129"
       style="fill:none;stroke:#949494;stroke-linecap:round;stroke-linejoin:round"
       id="path3" />
    <rect
       x="1.5"
       y="1.5"
       width="21"
       height="21"
       rx="2"
       style="fill:none;stroke:#949494;stroke-linecap:round;stroke-linejoin:round"
       id="rect3" />
  </g>
</svg>
