<svg width="1022" height="1047" viewBox="0 0 1022 1047" fill="none" xmlns="http://www.w3.org/2000/svg">
<path fill-rule="evenodd" clip-rule="evenodd" d="M987.232 1006.78C987.512 1005.69 987.992 1005.69 987.872 1004.32C987.757 1003.55 987.408 1002.83 986.872 1002.26C986.439 1001.74 986.183 1001.1 986.142 1000.43C986.197 999.25 986.541 998.104 987.142 997.089L987.192 996.999L988.192 997.689L988.132 997.759C986.892 999.429 987.012 1000.64 988.232 1002.25C989.232 1003.54 989.401 1006.07 988.082 1007.2C987.852 1007.1 987.632 1006.98 987.412 1006.87H987.342L987.232 1006.78ZM989.891 1006.78C990.061 1006.25 990.268 1005.74 990.511 1005.25C990.661 1004.89 990.661 1004.48 990.511 1004.12C990.274 1003.47 989.962 1002.86 989.581 1002.29C989.541 1002.23 989.504 1002.17 989.472 1002.11C989.102 1001.56 988.875 1000.93 988.811 1000.28C988.856 999.139 989.201 998.032 989.811 997.069V996.959L990.701 997.749V997.819C989.501 999.469 989.701 1000.68 990.871 1002.25C991.871 1003.53 992.031 1006.07 990.721 1007.2C990.481 1007.09 990.261 1006.97 990.011 1006.87H989.941L989.891 1006.78ZM993.171 1007.21C992.931 1007.11 992.711 1006.98 992.461 1006.88H992.391V1006.81C992.541 1006.24 992.821 1005.81 993.001 1005.34C993.371 1004.34 992.571 1003.08 992.001 1002.25C990.731 1000.31 991.321 998.999 992.271 997.119V997.029L993.271 997.719V997.789C992.021 999.469 992.161 1000.67 993.401 1002.28C994.401 1003.56 994.561 1006.1 993.251 1007.23L993.171 1007.21ZM995.961 1009.02H984.242V1008.02H995.961V1009.02ZM1004.28 1012.12C999.451 1003.87 994.741 995.559 989.921 987.309C985.092 995.559 980.382 1003.87 975.562 1012.12H1004.28Z" fill="#ACADAE"/>
<path fill-rule="evenodd" clip-rule="evenodd" d="M972.872 1012.91C972.859 1013.14 972.919 1013.36 973.042 1013.56C973.158 1013.77 973.328 1013.94 973.534 1014.06C973.739 1014.18 973.973 1014.25 974.212 1014.25H1005.54C1005.78 1014.25 1006.01 1014.19 1006.22 1014.08C1006.43 1013.96 1006.6 1013.79 1006.72 1013.59C1006.83 1013.38 1006.89 1013.15 1006.89 1012.92C1006.89 1012.68 1006.83 1012.45 1006.72 1012.25L991.021 985.168C990.911 984.962 990.747 984.789 990.546 984.669C990.345 984.549 990.115 984.487 989.881 984.488C989.642 984.486 989.406 984.548 989.198 984.667C988.991 984.787 988.819 984.96 988.701 985.168L973.042 1012.25C972.917 1012.46 972.857 1012.7 972.872 1012.94M1005.54 1013.59H974.212C974.092 1013.59 973.974 1013.56 973.869 1013.5C973.764 1013.44 973.675 1013.36 973.612 1013.26C973.556 1013.16 973.531 1013.05 973.542 1012.94C973.528 1012.81 973.553 1012.69 973.612 1012.58L989.311 985.498C989.364 985.394 989.446 985.307 989.547 985.248C989.648 985.19 989.764 985.162 989.881 985.168C989.997 985.169 990.11 985.199 990.21 985.257C990.31 985.315 990.393 985.398 990.451 985.498L1006.15 1012.58C1006.18 1012.69 1006.21 1012.8 1006.21 1012.91C1006.21 1013.03 1006.19 1013.15 1006.15 1013.26C1006.08 1013.36 1005.99 1013.44 1005.89 1013.5C1005.78 1013.56 1005.66 1013.59 1005.54 1013.59Z" fill="#ACADAE"/>
<path d="M33.2687 602.302H30.1187V990.119H33.2687V602.302Z" fill="#ACADAE"/>
<path d="M33.2687 36.3604H30.1187V213.714H33.2687V36.3604Z" fill="#ACADAE"/>
<path d="M967.692 1018.35H603.566C603.194 1018.35 602.825 1018.42 602.482 1018.56C602.138 1018.7 601.827 1018.91 601.567 1019.18L596.847 1023.9C596.585 1024.17 596.439 1024.53 596.439 1024.9C596.439 1025.27 596.585 1025.63 596.847 1025.9L611.136 1040.18C611.393 1040.45 611.704 1040.66 612.048 1040.81C612.392 1040.95 612.763 1041.03 613.136 1041.02H967.692C968.068 1041.02 968.428 1040.87 968.693 1040.6C968.959 1040.34 969.11 1039.98 969.112 1039.6V1019.76C969.112 1019.38 968.963 1019.02 968.696 1018.76C968.43 1018.49 968.069 1018.34 967.692 1018.34M955.533 1024.83C956.199 1024.91 956.844 1025.13 957.433 1025.45C958.002 1025.78 958.499 1026.21 958.893 1026.74L957.313 1027.99C956.885 1027.4 956.248 1027 955.533 1026.87V1024.83ZM939.723 1028.76H940.373C940.678 1028.78 940.984 1028.74 941.273 1028.64C941.415 1028.58 941.535 1028.47 941.615 1028.33C941.695 1028.2 941.733 1028.05 941.723 1027.89C941.734 1027.75 941.705 1027.62 941.642 1027.5C941.578 1027.38 941.481 1027.28 941.363 1027.21C941.073 1027.09 940.757 1027.04 940.443 1027.06H939.723V1025.06H940.233C940.706 1025.05 941.179 1025.09 941.643 1025.18C941.984 1025.26 942.304 1025.42 942.583 1025.63C942.941 1025.88 943.231 1026.21 943.427 1026.6C943.623 1026.99 943.718 1027.42 943.703 1027.86C943.722 1028.31 943.629 1028.75 943.434 1029.16C943.239 1029.56 942.946 1029.91 942.583 1030.17C942.313 1030.37 942.008 1030.51 941.683 1030.59C941.273 1030.68 940.853 1030.72 940.433 1030.71H939.723V1028.76ZM921.034 1024.83C921.7 1024.92 922.344 1025.13 922.934 1025.45C923.501 1025.78 923.994 1026.21 924.384 1026.74L922.804 1027.99C922.382 1027.4 921.747 1027 921.034 1026.87V1024.83ZM628.116 1030.83H626.796V1034.16H625.416V1025.38H628.066C630.065 1025.38 631.425 1026.05 631.425 1028.03C631.425 1030.01 630.025 1030.83 628.116 1030.83ZM638.755 1034.16H633.665V1025.38H635.045V1033.02H638.755V1034.16ZM645.635 1034.16L644.895 1031.66H641.895L641.145 1034.16H639.735L642.645 1025.38H644.245L647.155 1034.16H645.635ZM651.165 1035.46H649.975L653.285 1023.79H654.524L651.165 1035.46ZM663.354 1034.16L662.614 1031.66H659.614L658.864 1034.16H657.454L660.364 1025.38H661.964L664.874 1034.16H663.354ZM669.454 1034.16H666.514V1025.38H669.234C671.034 1025.38 672.334 1025.96 672.334 1027.54C672.352 1027.95 672.241 1028.35 672.016 1028.69C671.792 1029.03 671.466 1029.3 671.084 1029.44V1029.5C671.582 1029.57 672.037 1029.82 672.357 1030.21C672.678 1030.59 672.841 1031.09 672.814 1031.59C672.814 1033.33 671.394 1034.16 669.454 1034.16ZM677.314 1034.32C676.732 1034.32 676.157 1034.21 675.619 1033.99C675.082 1033.77 674.594 1033.44 674.184 1033.03L674.994 1032.03C675.616 1032.65 676.454 1033.01 677.334 1033.03C678.394 1033.03 678.994 1032.53 678.994 1031.79C678.994 1031.05 678.404 1030.74 677.584 1030.38L676.374 1029.86C675.875 1029.71 675.435 1029.41 675.114 1028.99C674.794 1028.58 674.608 1028.08 674.584 1027.56C674.606 1027.21 674.699 1026.87 674.858 1026.55C675.016 1026.24 675.237 1025.96 675.506 1025.73C675.775 1025.51 676.087 1025.34 676.424 1025.24C676.76 1025.13 677.114 1025.1 677.464 1025.14C677.958 1025.14 678.448 1025.24 678.904 1025.43C679.361 1025.62 679.775 1025.9 680.123 1026.25L679.393 1027.13C678.878 1026.62 678.185 1026.34 677.464 1026.34C676.574 1026.34 675.984 1026.77 675.984 1027.47C675.984 1028.17 676.694 1028.47 677.404 1028.8L678.614 1029.31C679.129 1029.46 679.583 1029.77 679.907 1030.19C680.23 1030.62 680.404 1031.14 680.403 1031.68C680.403 1033.09 679.234 1034.24 677.314 1034.24M684.963 1035.38H683.723L687.043 1023.71H688.283L684.963 1035.38ZM695.063 1030.75H693.743V1034.08H692.363V1025.3H695.023C697.023 1025.3 698.373 1025.97 698.373 1027.95C698.373 1029.93 696.973 1030.75 695.063 1030.75ZM705.972 1034.22H700.653V1025.44H705.842V1026.6H701.973V1029.02H705.192V1030.18H701.973V1033.02H705.972V1034.22ZM714.102 1026.6H711.472V1034.22H710.092V1026.6H707.522V1025.44H714.062L714.102 1026.6ZM722.182 1033.35C721.42 1034.03 720.423 1034.39 719.402 1034.35C717.052 1034.35 715.342 1032.7 715.342 1029.83C715.342 1026.96 717.112 1025.25 719.432 1025.25C719.922 1025.24 720.408 1025.34 720.859 1025.53C721.31 1025.72 721.716 1026 722.052 1026.36L721.302 1027.24C721.073 1026.99 720.792 1026.78 720.478 1026.65C720.164 1026.51 719.824 1026.44 719.482 1026.45C717.852 1026.45 716.762 1027.72 716.762 1029.78C716.762 1031.84 717.762 1033.14 719.542 1033.14C720.041 1033.16 720.532 1033.01 720.932 1032.71V1030.65H719.182V1029.52H722.182V1033.35ZM886.425 1034.43L889.715 1028.04L890.835 1030.23L888.675 1034.43H886.425ZM894.245 1034.43L893.435 1032.86H890.635L891.635 1030.86H892.425L890.315 1026.79L891.445 1024.6L896.445 1034.39L894.245 1034.43ZM899.625 1034.43H897.625V1028.92L899.625 1030.69V1034.43ZM905.865 1034.73L897.605 1027.44V1024.77L903.855 1030.3V1025.08H905.855L905.865 1034.73ZM906.575 1025.08H908.965L910.264 1026.92L909.014 1028.62L906.575 1025.08ZM911.814 1034.43H909.814V1029.63L913.154 1025.08H915.644L911.834 1030.29L911.814 1034.43ZM919.954 1026.88C919.435 1026.98 918.952 1027.22 918.554 1027.57C918.245 1027.85 917.999 1028.19 917.834 1028.57C917.66 1028.95 917.572 1029.37 917.574 1029.79C917.571 1030.38 917.753 1030.96 918.094 1031.45C918.541 1032.07 919.204 1032.51 919.954 1032.67V1034.67C919.054 1034.56 918.2 1034.21 917.474 1033.67C916.867 1033.21 916.377 1032.61 916.044 1031.92C915.648 1031.1 915.487 1030.18 915.581 1029.27C915.674 1028.36 916.018 1027.5 916.574 1026.77C916.98 1026.24 917.488 1025.79 918.069 1025.46C918.649 1025.13 919.29 1024.92 919.954 1024.84V1026.88ZM921.074 1034.69V1032.69C921.787 1032.56 922.423 1032.16 922.854 1031.58L924.444 1032.81C924.044 1033.34 923.539 1033.79 922.959 1034.12C922.379 1034.45 921.737 1034.66 921.074 1034.73M929.724 1034.65C929.281 1034.58 928.855 1034.43 928.464 1034.21C928.086 1034 927.748 1033.72 927.464 1033.39C927.127 1033.03 926.874 1032.61 926.724 1032.14C926.554 1031.59 926.477 1031.02 926.494 1030.45V1025.12H928.494V1030.27C928.459 1030.8 928.551 1031.33 928.764 1031.82C928.991 1032.19 929.347 1032.47 929.764 1032.6L929.724 1034.65ZM934.154 1030.45C934.166 1031.02 934.088 1031.59 933.924 1032.14C933.765 1032.6 933.513 1033.03 933.184 1033.39C932.878 1033.72 932.52 1034 932.124 1034.22C931.724 1034.43 931.292 1034.58 930.844 1034.65V1032.65C931.259 1032.53 931.614 1032.26 931.844 1031.89C932.056 1031.39 932.148 1030.86 932.114 1030.32V1025.17H934.114L934.154 1030.45ZM938.643 1034.45H936.643V1025.1H938.643V1034.45ZM943.473 1032.94C943.273 1033.34 942.974 1033.69 942.603 1033.94C942.34 1034.13 942.041 1034.27 941.723 1034.34C941.298 1034.42 940.866 1034.46 940.433 1034.45H939.763V1032.45H940.413C940.7 1032.46 940.987 1032.43 941.263 1032.35C941.429 1032.3 941.573 1032.19 941.67 1032.05C941.766 1031.91 941.81 1031.73 941.793 1031.56C941.801 1031.49 941.801 1031.43 941.793 1031.36C942.487 1031.26 943.117 1030.9 943.563 1030.36C943.731 1030.74 943.816 1031.16 943.813 1031.58C943.816 1032.04 943.71 1032.48 943.503 1032.89M947.943 1034.4H945.943V1025.05H947.943V1034.4ZM954.483 1026.85C953.967 1026.95 953.488 1027.19 953.093 1027.54C952.78 1027.82 952.531 1028.16 952.363 1028.54C952.194 1028.92 952.105 1029.34 952.103 1029.76C952.1 1030.35 952.281 1030.93 952.623 1031.42C953.072 1032.04 953.734 1032.48 954.483 1032.64V1034.64C953.586 1034.53 952.734 1034.18 952.013 1033.64C951.416 1033.18 950.931 1032.59 950.596 1031.92C950.262 1031.24 950.086 1030.5 950.083 1029.75C950.071 1028.67 950.423 1027.61 951.083 1026.75C951.489 1026.22 951.997 1025.77 952.577 1025.44C953.158 1025.11 953.799 1024.9 954.463 1024.82L954.483 1026.85ZM955.603 1034.66V1032.66C956.317 1032.53 956.956 1032.13 957.393 1031.55L958.983 1032.78C958.581 1033.31 958.073 1033.76 957.492 1034.09C956.911 1034.42 956.268 1034.63 955.603 1034.7M627.976 1026.55H626.836V1029.79H627.976C629.385 1029.79 630.055 1029.25 630.055 1028.09C630.055 1026.93 629.325 1026.55 627.926 1026.55M670.924 1027.78C670.924 1026.86 670.304 1026.52 669.064 1026.52H667.854V1029.11H669.034C670.364 1029.11 670.924 1028.6 670.924 1027.78ZM643.285 1026.53C643.035 1027.53 642.765 1028.53 642.475 1029.45L642.115 1030.63H644.515L644.165 1029.45C643.875 1028.45 643.605 1027.52 643.335 1026.53H643.285ZM669.284 1030.16H667.894V1033.16H669.284C670.654 1033.16 671.444 1032.67 671.444 1031.59C671.444 1030.51 670.684 1030.18 669.284 1030.18M694.873 1026.57H693.733V1029.81H694.973C696.383 1029.81 697.053 1029.27 697.053 1028.11C697.053 1026.95 696.323 1026.57 694.923 1026.57M661.094 1026.57C660.844 1027.57 660.574 1028.57 660.284 1029.49L659.924 1030.67H662.324L661.974 1029.49C661.694 1028.49 661.414 1027.56 661.144 1026.57H661.094Z" fill="#ACADAE"/>
<path d="M30.819 251.364C22.429 251.364 19.959 247.144 19.959 240.824V233.824H41.679V240.824C41.679 247.144 39.859 251.364 30.819 251.364ZM30.819 247.144C36.819 247.144 38.209 244.704 38.209 240.634V237.884H23.499V240.634C23.499 244.824 25.089 247.144 30.819 247.144Z" fill="#ACADAE"/>
<path d="M28.4094 254.925C35.2294 254.925 37.1694 257.925 37.1694 263.035C37.1694 268.145 35.2294 271.165 28.4094 271.165C21.5894 271.165 19.6494 268.165 19.6494 263.035C19.6494 257.905 21.5894 254.925 28.4094 254.925ZM28.4094 267.135C32.7894 267.135 34.1694 266.135 34.1694 263.035C34.1694 259.935 32.7894 259.005 28.4094 259.005C24.0294 259.005 22.6794 260.005 22.6794 263.075C22.6794 266.145 24.0294 267.175 28.4094 267.175" fill="#ACADAE"/>
<path d="M36.8595 289.815H19.9995V286.305L22.1595 285.965C20.3495 284.965 19.6895 283.085 19.6895 280.735C19.6895 276.485 21.7495 275.075 25.2895 275.075H36.8595V279.005H26.3795C24.0295 279.005 22.8995 279.535 22.8995 281.945C22.8995 283.825 23.4295 285.265 25.5895 285.945H36.8595V289.815Z" fill="#ACADAE"/>
<path d="M28.4094 310.706C23.6194 310.706 19.6494 309.426 19.6494 303.886C19.6494 300.666 20.7694 299.256 22.5294 298.596L19.9994 298.286V294.746H43.7394V298.666H34.4794C35.9794 299.346 37.1694 300.826 37.1694 303.886C37.1694 309.426 33.6994 310.706 28.4094 310.706ZM28.4094 306.706C31.6694 306.706 34.1694 306.206 34.1694 302.856C34.1694 299.506 32.0394 298.476 28.4094 298.476C24.9394 298.476 22.6794 299.416 22.6794 302.856C22.6794 306.296 25.3794 306.706 28.4094 306.706Z" fill="#ACADAE"/>
<path d="M23.8993 314.706H43.7393V318.616H24.8393C23.2793 318.616 22.8993 319.026 22.8993 320.086C22.9002 320.423 22.9439 320.759 23.0293 321.086H19.9993C19.869 320.468 19.8053 319.838 19.8093 319.206C19.8093 315.886 21.0693 314.666 23.9393 314.666" fill="#ACADAE"/>
<path d="M27.6594 338.176L26.9394 327.096C24.1194 327.196 22.8094 328.566 22.8094 331.946C22.823 333.845 23.2281 335.721 23.9994 337.456H20.7794C19.9595 335.495 19.574 333.38 19.6494 331.256C19.6494 326.126 21.5894 323.156 28.4094 323.156C35.2294 323.156 37.1694 326.156 37.1694 331.256C37.1694 337.106 33.8594 338.326 29.8794 338.326C29.1367 338.33 28.3948 338.28 27.6594 338.176ZM30.2894 334.696C32.3794 334.696 34.1694 334.266 34.1694 331.256C34.1694 328.096 32.6694 327.256 29.7294 327.096L30.2894 334.696Z" fill="#ACADAE"/>
<path d="M20.4294 349.587H24.0894C23.4851 351.619 23.1786 353.727 23.1794 355.847C23.1794 358.847 23.9394 360.037 26.1294 360.037C28.1294 360.037 28.7494 359.317 29.6294 355.757C30.7294 351.187 31.9494 349.757 35.7894 349.757C40.2094 349.757 42.0194 352.447 42.0194 357.457C42.0508 359.33 41.7876 361.196 41.2394 362.987H37.7694C38.2916 361.23 38.5643 359.409 38.5794 357.577C38.5794 354.947 38.0494 353.757 35.8894 353.757C34.2594 353.757 33.7294 354.257 32.8894 357.707C31.6594 362.777 30.1894 364.117 26.0594 364.117C21.9294 364.117 19.6494 361.647 19.6494 355.977C19.6364 353.826 19.8986 351.682 20.4294 349.597" fill="#ACADAE"/>
<path d="M36.859 372.147H19.999V368.237H36.899L36.859 372.147ZM41.579 368.007C43.489 368.007 43.679 368.477 43.679 370.227C43.679 371.977 43.489 372.447 41.579 372.447C39.669 372.447 39.459 371.977 39.459 370.227C39.459 368.477 39.709 368.007 41.579 368.007Z" fill="#ACADAE"/>
<path d="M43.7395 392.107H19.9995V388.627L22.4695 388.257C20.8495 387.597 19.6895 386.037 19.6895 382.997C19.6895 377.457 23.1595 376.147 28.4495 376.147C33.2095 376.147 37.2095 377.457 37.2095 382.997C37.2095 386.157 36.1495 387.537 34.4895 388.227H43.7795L43.7395 392.107ZM28.4095 388.377C31.8495 388.377 34.1695 387.477 34.1695 384.067C34.1695 380.657 31.4495 380.217 28.4095 380.217C25.1595 380.217 22.6795 380.687 22.6795 384.067C22.6795 387.447 24.7795 388.377 28.4095 388.377Z" fill="#ACADAE"/>
<path d="M27.6594 411.158L26.9394 400.078C24.1194 400.178 22.8094 401.548 22.8094 404.928C22.823 406.827 23.2281 408.702 23.9994 410.438H20.7794C19.9595 408.477 19.574 406.362 19.6494 404.238C19.6494 399.108 21.5894 396.138 28.4094 396.138C35.2294 396.138 37.1694 399.138 37.1694 404.238C37.1694 410.088 33.8594 411.308 29.8794 411.308C29.1367 411.311 28.3948 411.261 27.6594 411.158ZM30.2894 407.678C32.3794 407.678 34.1694 407.248 34.1694 404.238C34.1694 401.078 32.6694 400.238 29.7294 400.078L30.2894 407.678Z" fill="#ACADAE"/>
<path d="M43.7395 430.338H19.9995V426.858L22.4695 426.488C20.8495 425.828 19.6895 424.258 19.6895 421.228C19.6895 415.688 23.1595 414.378 28.4495 414.378C33.2095 414.378 37.2095 415.688 37.2095 421.228C37.2095 424.388 36.1495 425.768 34.4895 426.448H43.7795L43.7395 430.338ZM28.4095 426.608C31.8495 426.608 34.1695 425.698 34.1695 422.288C34.1695 418.878 31.4495 418.438 28.4095 418.438C25.1595 418.438 22.6795 418.908 22.6795 422.288C22.6795 425.668 24.7795 426.608 28.4095 426.608Z" fill="#ACADAE"/>
<path d="M41.679 443.248V450.668C41.679 457.168 39.549 459.208 34.289 459.208C28.629 459.208 26.659 456.768 26.659 450.668V448.008H19.999V443.248H41.679ZM30.479 450.008C30.479 453.228 31.319 454.328 34.199 454.328C37.079 454.328 37.919 453.198 37.919 450.008V448.008H30.479V450.008Z" fill="#ACADAE"/>
<path d="M24.089 476.789H19.959V463.079H41.679V476.349H37.549V467.839H33.069V475.719H29.099V467.839H24.089V476.789Z" fill="#ACADAE"/>
<path d="M41.679 480.659H19.959V485.419H41.679V480.659Z" fill="#ACADAE"/>
<path d="M20.4294 497.59H24.0894C23.485 499.618 23.1785 501.723 23.1794 503.84C23.1794 506.84 23.9394 508.04 26.1294 508.04C28.1294 508.04 28.7494 507.32 29.6294 503.75C30.7294 499.18 31.9494 497.75 35.7894 497.75C40.2094 497.75 42.0194 500.44 42.0194 505.45C42.0508 507.326 41.7876 509.195 41.2394 510.99H37.7694C38.2908 509.23 38.5634 507.405 38.5794 505.57C38.5794 502.95 38.0494 501.76 35.8894 501.76C34.2594 501.76 33.7294 502.26 32.8894 505.7C31.6594 510.77 30.1894 512.11 26.0594 512.11C21.9294 512.11 19.6494 509.64 19.6494 503.98C19.6357 501.829 19.8979 499.684 20.4294 497.6" fill="#ACADAE"/>
<path d="M31.539 531.16H19.999V527.24H30.439C32.819 527.24 33.919 526.68 33.919 524.33C33.919 522.33 33.319 520.83 31.129 520.2H19.999V516.29H43.739V520.2H34.669C36.449 521.14 37.169 523.2 37.169 525.52C37.169 529.81 35.109 531.16 31.539 531.16Z" fill="#ACADAE"/>
<path d="M27.6592 550.111L26.9392 539.011C24.1192 539.101 22.8092 540.481 22.8092 543.861C22.813 545.754 23.2079 547.627 23.9692 549.361H20.7792C19.9602 547.403 19.5747 545.291 19.6492 543.171C19.6492 538.031 21.5892 535.061 28.4092 535.061C35.2292 535.061 37.1692 538.061 37.1692 543.171C37.1692 549.021 33.8592 550.241 29.8792 550.241C29.1361 550.246 28.3938 550.193 27.6592 550.081M30.2892 546.611C32.3792 546.611 34.1692 546.171 34.1692 543.171C34.1692 540.011 32.6692 539.171 29.7292 539.011L30.2892 546.611Z" fill="#ACADAE"/>
<path d="M27.6594 568.35L26.9394 557.27C24.1194 557.37 22.8094 558.74 22.8094 562.12C22.8219 564.019 23.227 565.895 23.9994 567.63H20.7794C19.9595 565.669 19.574 563.554 19.6494 561.43C19.6494 556.3 21.5894 553.33 28.4094 553.33C35.2294 553.33 37.1694 556.33 37.1694 561.43C37.1694 567.28 33.8594 568.51 29.8794 568.51C29.1365 568.511 28.3945 568.457 27.6594 568.35ZM30.2894 564.88C32.3794 564.88 34.1694 564.44 34.1694 561.43C34.1694 558.42 32.6694 557.43 29.7294 557.27L30.2894 564.88Z" fill="#ACADAE"/>
<path d="M33.729 576.671H25.589C23.399 576.671 22.869 577.041 22.869 578.761C22.8509 579.279 22.9048 579.798 23.029 580.301H19.929C19.8287 579.605 19.7753 578.904 19.769 578.201C19.769 574.201 20.839 572.761 25.279 572.761H33.729V570.411H36.859V572.761H40.859V576.671H36.859V580.391H33.729V576.671Z" fill="#ACADAE"/>
<path d="M1005.47 1041.02C1005.85 1041.02 1006.21 1040.87 1006.47 1040.6C1006.74 1040.34 1006.89 1039.98 1006.89 1039.6V1035.35H1001.22V1041.02H1005.47ZM1006.89 1029.68V1019.76C1006.89 1019.38 1006.74 1019.02 1006.47 1018.76C1006.21 1018.49 1005.85 1018.34 1005.47 1018.34H1001.22V1024.02H995.551V1018.35H974.292C973.916 1018.35 973.557 1018.5 973.291 1018.77C973.025 1019.03 972.875 1019.39 972.872 1019.77V1039.61C972.875 1039.99 973.025 1040.35 973.291 1040.61C973.557 1040.88 973.916 1041.03 974.292 1041.03H995.551V1035.36H1001.22V1029.69L1006.89 1029.68Z" fill="#ACADAE"/>
</svg>
